<svg width="" height="" viewBox="" fill="none" xmlns="http://www.w3.org/2000/svg">
<path d="M0 631C107.04 369.366 439.073 117.69 802.079 449.938C1165.08 782.187 1678.46 492.186 1919.5 0" stroke="#18BBEB" stroke-opacity="0.4"/>
<ellipse cx="1051.46" cy="581.208" rx="10.5917" ry="9.95839" fill="white"/>
<path d="M1061.56 581.208C1061.56 586.403 1057.07 590.666 1051.46 590.666C1045.86 590.666 1041.37 586.403 1041.37 581.208C1041.37 576.013 1045.86 571.75 1051.46 571.75C1057.07 571.75 1061.56 576.013 1061.56 581.208Z" stroke="#18BBEB" stroke-opacity="0.4"/>
<ellipse cx="477.588" cy="291.509" rx="10.5917" ry="9.95839" fill="white"/>
<path d="M487.68 291.509C487.68 296.704 483.191 300.968 477.588 300.968C471.985 300.968 467.496 296.704 467.496 291.509C467.496 286.314 471.985 282.051 477.588 282.051C483.191 282.051 487.68 286.314 487.68 291.509Z" stroke="#18BBEB" stroke-opacity="0.4"/>
<ellipse cx="1633.04" cy="382.945" rx="10.5917" ry="9.95839" fill="white"/>
<path d="M1643.14 382.945C1643.14 388.141 1638.65 392.404 1633.04 392.404C1627.44 392.404 1622.95 388.141 1622.95 382.945C1622.95 377.75 1627.44 373.487 1633.04 373.487C1638.65 373.487 1643.14 377.75 1643.14 382.945Z" stroke="#18BBEB" stroke-opacity="0.4"/>
</svg>
