<svg width="52" height="51" viewBox="0 0 52 51" fill="none" xmlns="http://www.w3.org/2000/svg">
<path d="M9.65158 0C4.49687 0 0.346313 4.15056 0.346313 9.30526V41.6563C0.346313 46.811 4.49687 50.9615 9.65158 50.9615H27.1855V31.0388H21.9174V23.8659H27.1855V17.7378C27.1855 12.9232 30.2982 8.50262 37.4686 8.50262C40.3718 8.50262 42.5186 8.78133 42.5186 8.78133L42.3497 15.4796C42.3497 15.4796 40.1603 15.4589 37.7712 15.4589C35.1854 15.4589 34.7708 16.6503 34.7708 18.6281V23.866H42.5552L42.216 31.0388H34.7708V50.9616H42.0025C47.1572 50.9616 51.3078 46.811 51.3078 41.6563V9.30531C51.3078 4.15061 47.1572 5.09615e-05 42.0025 5.09615e-05H9.65153L9.65158 0Z" fill="url(#paint0_linear)"/>
<defs>
<linearGradient id="paint0_linear" x1="9.75276" y1="85.9977" x2="-42.9711" y2="30.5052" gradientUnits="userSpaceOnUse">
<stop stop-color="#0170B0"/>
<stop offset="1" stop-color="#18BBEB"/>
</linearGradient>
</defs>
</svg>
