<svg width="36" height="41" viewBox="0 0 36 41" fill="none" xmlns="http://www.w3.org/2000/svg">
<path d="M35.7129 38.6277L33.9434 28.2316C33.7527 27.1115 32.9609 26.2117 31.8767 25.8835L27.1039 24.4384C27.0051 23.2675 26.5267 22.163 25.7306 21.2886C25.0938 20.5893 24.2929 20.0801 23.41 19.7991C23.5611 19.6309 23.7012 19.4632 23.8297 19.2992C24.9647 17.8506 25.5723 16.2546 25.727 15.1656H26.0952C27.0529 15.1656 27.832 14.3838 27.832 13.4227V12.5292C27.832 11.8878 27.4725 11.3067 26.9318 11.005V8.85657C26.9318 8.53192 26.6695 8.26873 26.346 8.26873C26.0225 8.26873 25.7603 8.53184 25.7603 8.85657V11.2685C25.5322 11.3082 25.26 11.3769 24.9816 11.4946C24.9531 11.505 24.9253 11.5171 24.8991 11.5316C24.8362 11.5604 24.7732 11.5907 24.7105 11.6249V6.88779C24.7105 5.57905 23.6495 4.51438 22.3454 4.51438H20.7286C20.1709 4.51438 19.6262 4.70936 19.1945 5.06357L19.0358 5.19372C18.7444 5.43284 18.3766 5.56455 18.0001 5.56455C17.6236 5.56455 17.2557 5.43284 16.9643 5.19372L16.8057 5.06357C16.374 4.70944 15.8292 4.51438 15.2716 4.51438H13.6546C12.3505 4.51438 11.2896 5.57905 11.2896 6.88779V11.6249C11.2268 11.5907 11.1639 11.5604 11.101 11.5316C11.0747 11.5171 11.0471 11.505 11.0185 11.4946C10.7401 11.3769 10.4678 11.3082 10.2398 11.2685V5.1698C10.2398 3.26641 11.7829 1.71785 13.6796 1.71785H22.3203C24.2171 1.71785 25.7602 3.26641 25.7602 5.1698V6.09383C25.7602 6.41848 26.0224 6.68167 26.3459 6.68167C26.6693 6.68167 26.9316 6.41856 26.9316 6.09383V5.1698C26.9316 2.61819 24.863 0.542236 22.3203 0.542236H13.6796C11.1369 0.542236 9.06831 2.61819 9.06831 5.1698V11.0051C8.52761 11.3067 8.16808 11.8878 8.16808 12.5293V13.4228C8.16808 14.3839 8.94722 15.1657 9.90487 15.1657H10.2731C10.4277 16.2547 11.0354 17.8506 12.1704 19.2992C12.2988 19.4631 12.4388 19.6306 12.5897 19.7987C10.56 20.4457 9.07987 22.2769 8.8962 24.4384L4.12324 25.8835C3.0391 26.2117 2.24723 27.1115 2.0566 28.2316L1.33801 32.4534C1.28356 32.7734 1.49793 33.077 1.81676 33.1317C2.13551 33.1865 2.43824 32.9713 2.49277 32.6512L3.21136 28.4295C3.32668 27.7518 3.80574 27.2075 4.4616 27.009L8.87605 25.6724V26.8351C7.86417 27.022 7.00316 27.7196 6.64855 28.686C6.55441 28.9425 6.49589 29.2111 6.47464 29.4843L6.048 34.9797C6.01581 35.3937 6.15855 35.8059 6.43941 36.1105C6.72027 36.4152 7.11863 36.59 7.5323 36.59H8.26261C8.58612 36.59 8.84839 36.3269 8.84839 36.0021C8.84839 35.6774 8.58612 35.4144 8.26261 35.4144H7.5323C7.44409 35.4144 7.35925 35.3772 7.29933 35.3121C7.23948 35.2472 7.20909 35.1594 7.21597 35.0712L7.64261 29.5757C7.6555 29.4102 7.69089 29.2475 7.74792 29.0922C7.99464 28.4199 8.66089 27.9646 9.40597 27.9594L9.50245 27.9587C9.50698 27.9586 9.51144 27.9586 9.51589 27.9586C10.24 27.9586 10.881 28.3707 11.1514 29.0113C11.2273 29.1909 11.2734 29.3808 11.2885 29.5757L11.7153 35.0713C11.7221 35.1594 11.6917 35.2472 11.6319 35.3122C11.5721 35.3771 11.4871 35.4144 11.3989 35.4144H10.6686C10.3451 35.4144 10.0828 35.6775 10.0828 36.0021C10.0828 36.3268 10.3451 36.59 10.6686 36.59H11.3989C11.8126 36.59 12.211 36.4152 12.4918 36.1105C12.7728 35.8058 12.9155 35.3936 12.8833 34.9798L12.4565 29.4843C12.4315 29.1627 12.3553 28.8492 12.2301 28.5526C11.8442 27.6387 11.0192 27.0032 10.0474 26.8313V25.3177L12.061 24.708C12.2442 25.0952 12.6073 25.932 13.3264 27.7357C14.0512 29.5557 14.9521 31.8885 15.816 34.1563C15.8222 34.1753 15.8293 34.1939 15.8373 34.2121C16.4138 35.7261 16.9731 37.209 17.4515 38.4881C17.5373 38.7175 17.7558 38.8695 17.9999 38.8695C18.2441 38.8695 18.4626 38.7175 18.5484 38.4881C19.0267 37.209 19.586 35.7261 20.1626 34.2121C20.1706 34.1939 20.1777 34.1753 20.1838 34.1563C21.0472 31.8898 21.9476 29.5585 22.672 27.7391C23.3921 25.933 23.7555 25.0955 23.9388 24.708L25.9523 25.3177V28.7896C24.5572 29.0616 23.5004 30.2964 23.5004 31.7749C23.5004 33.4519 24.86 34.8164 26.5313 34.8164C28.2025 34.8164 29.5621 33.452 29.5621 31.7749C29.5621 30.3013 28.5123 29.0695 27.1238 28.7922V25.6725L31.5384 27.0091C32.1942 27.2076 32.6732 27.7519 32.7886 28.4296L34.5581 38.8256C34.5875 38.9981 34.5418 39.1666 34.4294 39.3003C34.317 39.4339 34.1591 39.5076 33.9848 39.5076H2.01504C1.84074 39.5076 1.68293 39.434 1.57051 39.3003C1.45816 39.1666 1.41238 38.9981 1.44176 38.8256L2.02574 35.3947C2.08019 35.0747 1.86582 34.771 1.54699 34.7164C1.22824 34.6615 0.925509 34.8769 0.870977 35.1968L0.286994 38.6278C0.199885 39.1399 0.341369 39.6613 0.675118 40.0584C1.00902 40.4554 1.49738 40.6831 2.01504 40.6831H33.9848C34.5025 40.6831 34.9909 40.4554 35.3248 40.0583C35.6585 39.6612 35.8 39.1398 35.7129 38.6277ZM25.7672 12.466C26.0793 12.3879 26.3298 12.3894 26.3327 12.3894C26.4336 12.3908 26.5317 12.3671 26.6189 12.3212C26.645 12.3864 26.6604 12.4564 26.6604 12.5293V13.4228C26.6604 13.7356 26.4068 13.9901 26.0951 13.9901H25.7672V12.466ZM10.2327 13.9901H9.90479C9.59308 13.9901 9.33948 13.7356 9.33948 13.4228V12.5293C9.33948 12.4564 9.35495 12.3864 9.38097 12.3213C9.46808 12.3672 9.5662 12.3908 9.66722 12.3894C9.67167 12.3902 9.92151 12.3888 10.2327 12.4663V13.9901ZM11.4042 14.6492V13.1048C11.5817 13.1582 11.7758 13.1509 11.955 13.0759C12.2624 12.9472 12.461 12.6482 12.461 12.3142V6.88779C12.461 6.22734 12.9965 5.68999 13.6546 5.68999H15.2714C15.5596 5.68999 15.841 5.79073 16.0641 5.97372L16.2227 6.10386C16.7228 6.51421 17.3539 6.74008 17.9999 6.74008C18.646 6.74008 19.2771 6.51413 19.7772 6.10386L19.9358 5.97372C20.1588 5.79073 20.4403 5.68999 20.7284 5.68999H22.3452C23.0034 5.68999 23.5388 6.22734 23.5388 6.88779V12.3143C23.5388 12.6482 23.7374 12.9473 24.0449 13.076C24.1475 13.119 24.255 13.1398 24.3616 13.1398C24.441 13.1398 24.5198 13.1281 24.5957 13.1054V14.6492C24.5957 15.5074 24.0045 17.174 22.9087 18.5725C22.5457 19.0358 22.0792 19.5335 21.5047 19.9685C21.4865 19.9807 21.4691 19.9939 21.4524 20.008C20.5625 20.6683 19.4182 21.1742 17.9999 21.1742C16.5817 21.1742 15.4374 20.6683 14.5474 20.008C14.5307 19.9939 14.5134 19.9807 14.4953 19.9685C13.9208 19.5335 13.4542 19.0358 13.0912 18.5725C11.9955 17.1741 11.4042 15.5074 11.4042 14.6492ZM21.8374 24.1462L17.9999 27.0245L14.1624 24.1462C14.543 23.6608 14.7562 23.0377 14.7562 22.4817V21.5342C15.6586 22.0212 16.7354 22.3499 17.9999 22.3499C19.2645 22.3499 20.3413 22.0212 21.2437 21.5342V22.4817C21.2437 23.0377 21.4569 23.6608 21.8374 24.1462ZM13.1849 23.49C12.8721 23.3705 12.5253 23.3509 12.1972 23.4402C12.1828 23.4435 12.1688 23.4474 12.1551 23.4515L10.1314 24.0642C10.4737 22.3753 11.8403 21.0311 13.5847 20.7707V22.4817C13.5847 22.8505 13.4206 23.2318 13.1849 23.49ZM14.7746 28.2088C14.7735 28.206 14.7724 28.2033 14.7714 28.2006C14.7417 28.1253 14.7124 28.051 14.6834 27.9775C14.6781 27.9642 14.6729 27.9509 14.6677 27.9378C14.6392 27.8659 14.611 27.7945 14.5832 27.7243C14.5813 27.7194 14.5793 27.7145 14.5774 27.7095C14.4906 27.4906 14.4069 27.2805 14.3264 27.0793C14.3206 27.0647 14.3147 27.0499 14.3089 27.0354C14.2857 26.9777 14.263 26.9208 14.2404 26.8647C14.2321 26.8441 14.2239 26.8237 14.2157 26.8033C14.1938 26.7489 14.1721 26.6948 14.1507 26.6419C14.1443 26.626 14.1381 26.6107 14.1317 26.5949C14.0929 26.4988 14.0549 26.4051 14.0179 26.3138C14.0079 26.2891 13.9977 26.2639 13.9878 26.2395C13.9732 26.2039 13.9591 26.1693 13.9449 26.1344C13.9296 26.0968 13.9142 26.0594 13.8992 26.0228C13.8936 26.009 13.8878 25.9945 13.8821 25.9809C13.8776 25.9699 13.8735 25.9598 13.869 25.9489C13.8014 25.7839 13.7371 25.6285 13.676 25.4823C13.6756 25.4811 13.675 25.4799 13.6746 25.4787C13.6421 25.4009 13.6103 25.3248 13.5797 25.2524C13.5639 25.2148 13.5482 25.1779 13.5329 25.1417L16.8333 27.6171L15.4542 28.205C15.4518 28.206 15.4493 28.2071 15.4469 28.2082L14.8711 28.4536C14.8385 28.3708 14.8065 28.2895 14.7746 28.2088ZM16.1723 31.808C16.0566 31.5067 15.94 31.2037 15.8232 30.901C15.6406 30.4275 15.4661 29.9773 15.2992 29.5485L15.5178 29.4553L16.4109 30.4971L16.1723 31.808ZM18.0113 36.5855C17.9945 36.5506 17.9745 36.5176 17.9513 36.4868C17.6867 35.7847 17.3507 34.8964 16.9789 33.919L17.5258 30.9143H18.4741L19.021 33.919C18.6313 34.943 18.2814 35.8689 18.0113 36.5855ZM18.6938 29.7388H17.3061L16.6495 28.9728L17.9999 28.3971L19.3504 28.9728L18.6938 29.7388ZM20.1767 30.901C20.0599 31.2037 19.9433 31.5067 19.8276 31.808L19.589 30.497L20.4821 29.4552L20.7007 29.5484C20.5338 29.9773 20.3593 30.4275 20.1767 30.901ZM22.4202 25.2524C22.3913 25.3211 22.3611 25.3931 22.3304 25.4667C22.3264 25.4762 22.3224 25.4859 22.3184 25.4955C22.288 25.5684 22.257 25.6429 22.225 25.7204C22.2229 25.7255 22.2207 25.7309 22.2186 25.7361C22.1909 25.803 22.1626 25.872 22.1338 25.9423C22.1284 25.9555 22.1233 25.9676 22.1179 25.9809C22.1115 25.9966 22.1046 26.0133 22.0981 26.0293C22.0853 26.0606 22.0723 26.0926 22.0592 26.1246C22.0431 26.164 22.027 26.2033 22.0106 26.2437C22.0053 26.2565 21.9999 26.2699 21.9946 26.2829C21.9538 26.3832 21.912 26.4865 21.8692 26.5926C21.8624 26.6093 21.8558 26.6256 21.8491 26.6424C21.8279 26.6949 21.8063 26.7484 21.7847 26.8023C21.7763 26.8234 21.7677 26.8444 21.7592 26.8657C21.7369 26.9213 21.7143 26.9776 21.6915 27.0347C21.6851 27.0506 21.6786 27.0669 21.6722 27.0829C21.5927 27.2814 21.5103 27.4884 21.4248 27.7042C21.422 27.7113 21.4192 27.7183 21.4163 27.7255C21.3887 27.7952 21.3607 27.8661 21.3324 27.9375C21.3272 27.9508 21.3219 27.9642 21.3166 27.9776C21.2874 28.0514 21.2579 28.1261 21.2281 28.2019C21.2275 28.2033 21.227 28.2047 21.2264 28.206C21.1942 28.2877 21.1619 28.3699 21.1289 28.4538L20.5526 28.2081C20.5506 28.2072 20.5485 28.2064 20.5466 28.2055L19.1667 27.6173L22.4671 25.1418C22.4517 25.1779 22.436 25.2148 22.4202 25.2524ZM23.8448 23.4515C23.8447 23.4515 23.8445 23.4515 23.8445 23.4515C23.844 23.4513 23.8434 23.4512 23.843 23.451C23.5031 23.3487 23.1406 23.3656 22.8151 23.49C22.5792 23.2318 22.4152 22.8505 22.4152 22.4817V20.7699C24.1706 21.0295 25.5331 22.3612 25.8709 24.0649L23.8448 23.4515ZM28.3906 31.7749C28.3906 32.8038 27.5565 33.6408 26.5313 33.6408C25.506 33.6408 24.6719 32.8038 24.6719 31.7749C24.6719 30.746 25.506 29.909 26.5313 29.909C27.5565 29.909 28.3906 30.746 28.3906 31.7749Z" fill="url(#paint0_linear)"/>
<defs>
<linearGradient id="paint0_linear" x1="17.9999" y1="0.542236" x2="17.9999" y2="40.6831" gradientUnits="userSpaceOnUse">
<stop stop-color="#18BBEB"/>
<stop offset="1" stop-color="#0095C4"/>
</linearGradient>
</defs>
</svg>
