<svg width="62" height="62" viewBox="0 0 62 62" fill="none" xmlns="http://www.w3.org/2000/svg">
<g clip-path="url(#clip0)">
<path d="M14.8969 22.8923C14.2821 22.5553 13.5103 22.7806 13.1732 23.3957L13.1477 23.4419C12.8107 24.0568 13.0359 24.8287 13.6511 25.1656C13.8448 25.2718 14.0539 25.3221 14.2602 25.3221C14.709 25.3221 15.1439 25.0836 15.3749 24.6622L15.4003 24.6161C15.7373 24.0011 15.5119 23.2293 14.8969 22.8923Z" fill="url(#paint0_linear)"/>
<path d="M55.5307 26.9294C53.534 19.1578 47.9357 12.6974 40.3819 9.67838C39.077 5.60356 35.2404 2.78516 30.9347 2.78516C26.519 2.78516 22.7695 5.68629 21.4882 9.68207C16.9388 11.5043 13.0429 14.5782 10.1926 18.6053C8.39193 21.1496 7.09373 23.9622 6.33357 26.9297C3.05497 27.1746 0.461548 29.9185 0.461548 33.2585C0.461548 36.6004 3.05759 39.3457 6.3388 39.5878C9.1584 50.538 19.1165 58.6529 30.9347 58.6529C42.7527 58.6529 52.7108 50.538 55.5303 39.5878C58.8115 39.3457 61.4077 36.6004 61.4077 33.2582C61.4077 29.9167 58.8118 27.1717 55.5307 26.9294ZM3.00117 33.2582C3.00117 31.5061 4.19069 30.0267 5.80433 29.5843C5.6953 30.34 5.61935 31.103 5.57817 31.8718C5.57745 31.8825 5.5771 31.893 5.5765 31.9037C5.56912 32.0437 5.56257 32.1838 5.55757 32.3242C5.55555 32.3774 5.55448 32.4306 5.55305 32.4838C5.54996 32.5845 5.54674 32.6851 5.54484 32.7859C5.5421 32.9434 5.54043 33.1009 5.54043 33.2584C5.54043 33.4506 5.54341 33.6427 5.54793 33.8351C5.54924 33.8953 5.55091 33.9553 5.55281 34.0153C5.55686 34.1552 5.56234 34.295 5.56876 34.4348C5.57138 34.4941 5.57376 34.5535 5.57674 34.6129C5.58602 34.7874 5.59721 34.9616 5.60995 35.1359C5.61602 35.2178 5.62316 35.2992 5.62983 35.3809C5.63852 35.4842 5.64757 35.5876 5.65745 35.6908C5.66613 35.7818 5.67506 35.8728 5.6847 35.9634C5.69589 36.0696 5.70863 36.1757 5.72113 36.2816C5.73768 36.4204 5.75541 36.5588 5.7741 36.6968C5.78481 36.7758 5.79469 36.8548 5.80612 36.9333C4.19152 36.4916 3.00117 35.0113 3.00117 33.2582ZM30.9347 5.32478C33.4496 5.32478 35.7497 6.61631 37.0922 8.63789C37.067 8.63765 37.0416 8.63753 37.0163 8.63753C36.9998 8.63753 36.9839 8.63872 36.9675 8.63884C36.9611 8.63908 36.9547 8.63896 36.9483 8.63932C32.9948 8.6761 29.7899 11.9022 29.7899 15.8641C29.7899 17.4058 30.2742 18.8716 31.1445 20.081C31.0746 20.0829 31.0045 20.084 30.9347 20.084C26.8658 20.084 23.5554 16.7736 23.5554 12.7046C23.5553 8.63527 26.8656 5.32478 30.9347 5.32478ZM53.7812 33.86C53.7805 33.8909 53.7787 33.9216 53.7778 33.9526C53.7725 34.1227 53.7663 34.2929 53.7574 34.463C53.7559 34.4933 53.7535 34.5237 53.7517 34.5541C53.7421 34.7239 53.7313 34.8939 53.718 35.0636C53.7154 35.0979 53.7117 35.132 53.7088 35.1662C53.6953 35.3303 53.6804 35.4942 53.6634 35.6579C53.6587 35.7035 53.6528 35.7488 53.6478 35.7943C53.6311 35.9443 53.6137 36.094 53.5942 36.2436C53.586 36.3063 53.5767 36.3685 53.5679 36.4309C53.55 36.5603 53.5317 36.6895 53.5114 36.8185C53.4981 36.9024 53.4839 36.9857 53.4697 37.0694C53.4522 37.1738 53.4347 37.2781 53.4157 37.3821C53.3964 37.4879 53.3758 37.5931 53.3549 37.6983C53.3395 37.7771 53.324 37.856 53.3076 37.9347C51.1436 48.3016 41.9343 56.1133 30.9345 56.1133C19.9266 56.1133 10.7118 48.2905 8.55655 37.9123C8.53703 37.8182 8.51906 37.7236 8.50084 37.6291C8.48323 37.5389 8.46525 37.4486 8.44883 37.3581C8.4255 37.2297 8.40419 37.1008 8.383 36.972C8.37336 36.9129 8.36276 36.8538 8.3536 36.7945C8.32836 36.6315 8.30527 36.4681 8.28337 36.3045C8.27968 36.2767 8.27515 36.2491 8.2717 36.2214C8.2467 36.0287 8.22385 35.8353 8.20373 35.642C8.20373 35.6412 8.20349 35.6401 8.20349 35.6393C8.12124 34.8489 8.0797 34.0536 8.0797 33.2587C8.0797 33.0793 8.08267 32.8998 8.08696 32.7204C8.08851 32.6615 8.09029 32.6027 8.0922 32.5439C8.09589 32.4232 8.10089 32.3025 8.1066 32.1818C8.10981 32.1116 8.11291 32.0412 8.11684 31.9711C8.12291 31.8642 8.13053 31.7573 8.13802 31.6505C8.15124 31.466 8.16612 31.2819 8.18362 31.0982C8.18564 31.0771 8.1873 31.0561 8.18933 31.0351C8.96973 23.1324 13.8641 16.1193 21.0167 12.6646C21.0167 12.6781 21.0158 12.6913 21.0158 12.7047C21.0158 13.6137 21.141 14.4934 21.3711 15.3302C19.092 16.5437 17.0907 18.1607 15.4131 20.1487C14.9608 20.6848 15.0287 21.4859 15.5648 21.938C15.8031 22.1391 16.0938 22.2372 16.383 22.2372C16.7442 22.2372 17.1029 22.0839 17.354 21.7863C18.7711 20.107 20.452 18.7307 22.3606 17.6822C24.0809 20.6339 27.2789 22.6236 30.9347 22.6236C32.0558 22.6236 33.1574 22.4372 34.2082 22.0697C34.6659 21.9096 34.9925 21.5029 35.0499 21.0213C35.1073 20.5398 34.8853 20.0676 34.478 19.8046C33.1326 18.9355 32.3294 17.4626 32.3294 15.8643C32.3294 13.3323 34.3478 11.2643 36.8602 11.1813C45.2943 13.4379 51.5669 20.2575 53.3047 28.5693C53.3334 28.7068 53.3614 28.8445 53.3874 28.9826C53.401 29.0547 53.4135 29.1273 53.4267 29.1997C53.447 29.3127 53.4668 29.4259 53.4854 29.5392C53.4966 29.6071 53.5072 29.675 53.5178 29.7431C53.5374 29.8706 53.5562 29.9982 53.5736 30.1261C53.581 30.1793 53.5886 30.2325 53.5956 30.2858C53.644 30.6569 53.6834 31.0295 53.7137 31.4028C53.7172 31.4456 53.7199 31.4886 53.7231 31.5316C53.7341 31.6752 53.7435 31.819 53.7517 31.9628C53.7548 32.0186 53.7578 32.0747 53.7605 32.1306C53.7674 32.2675 53.7725 32.4045 53.7768 32.5414C53.7786 32.5944 53.7805 32.6473 53.7819 32.7002C53.7865 32.8864 53.7893 33.0725 53.7893 33.2585C53.7892 33.459 53.7865 33.6596 53.7812 33.86ZM56.0631 36.9333C56.0771 36.8374 56.0897 36.741 56.1025 36.6447C56.1161 36.543 56.1292 36.4411 56.1417 36.339C56.1573 36.2109 56.1722 36.0826 56.1858 35.9543C56.1948 35.8702 56.203 35.7859 56.2108 35.7016C56.2216 35.591 56.2313 35.4804 56.2405 35.3698C56.2468 35.2931 56.2536 35.2167 56.2592 35.1398C56.2723 34.9635 56.2835 34.7872 56.2929 34.6106C56.2961 34.5537 56.298 34.4967 56.3007 34.4397C56.3071 34.2976 56.3126 34.1558 56.3168 34.0136C56.3186 33.9545 56.3202 33.8952 56.3218 33.8359C56.326 33.6434 56.329 33.4509 56.329 33.2582C56.329 33.0907 56.327 32.9233 56.3238 32.7558C56.3225 32.695 56.3205 32.6342 56.3188 32.5734C56.3161 32.4683 56.3129 32.3632 56.3089 32.258C56.306 32.1832 56.3021 32.1085 56.2988 32.0338C56.2944 31.9434 56.2899 31.8531 56.2844 31.7629C56.2798 31.6817 56.2746 31.6008 56.2691 31.5198C56.2633 31.4365 56.2571 31.3534 56.2506 31.2702C56.2441 31.1858 56.2375 31.1013 56.23 31.0172C56.2227 30.9357 56.2148 30.8547 56.2068 30.7734C56.1987 30.6897 56.1908 30.6059 56.1819 30.5222C56.1718 30.4277 56.1603 30.3336 56.1489 30.2393C56.1364 30.1344 56.1237 30.0298 56.1099 29.9252C56.0948 29.8112 56.0799 29.6972 56.0634 29.5835C57.6782 30.0251 58.8683 31.5052 58.8683 33.258C58.8681 35.0115 57.678 36.4916 56.0631 36.9333Z" fill="url(#paint1_linear)"/>
<path d="M26.4178 34.7282C25.8238 32.5118 23.8067 30.9637 21.512 30.9637C19.2177 30.9637 17.2003 32.5118 16.6062 34.7282C16.4247 35.4057 16.8267 36.1019 17.504 36.2834C18.1815 36.4647 18.8776 36.063 19.0592 35.3857C19.3563 34.2773 20.3649 33.5032 21.5119 33.5032C22.659 33.5032 23.6676 34.2773 23.9646 35.3857C24.1166 35.9529 24.6298 36.327 25.1903 36.327C25.299 36.327 25.4097 36.313 25.5198 36.2834C26.1975 36.1019 26.5994 35.4057 26.4178 34.7282Z" fill="url(#paint2_linear)"/>
<path d="M40.3576 30.9637C38.0629 30.9637 36.0455 32.5119 35.4516 34.7284C35.2702 35.4058 35.6722 36.102 36.3496 36.2834C37.0268 36.4651 37.7232 36.0629 37.9046 35.3856C38.2016 34.2773 39.2102 33.5033 40.3574 33.5033C41.5046 33.5033 42.5132 34.2773 42.8102 35.3857C42.9622 35.9529 43.4751 36.327 44.0359 36.327C44.1445 36.327 44.2552 36.313 44.3654 36.2834C45.0428 36.1019 45.4446 35.4056 45.2631 34.7282C44.6691 32.5119 42.652 30.9637 40.3576 30.9637Z" fill="url(#paint3_linear)"/>
<path d="M34.9428 43.637C34.2656 43.4556 33.5691 43.8573 33.3876 44.5349C33.0905 45.6432 32.0819 46.4173 30.9349 46.4173C29.7876 46.4173 28.779 45.6432 28.4822 44.5349C28.3006 43.8574 27.6044 43.4554 26.927 43.637C26.2495 43.8185 25.8477 44.5147 26.0292 45.1922C26.6232 47.4089 28.6404 48.9568 30.935 48.9568C33.2294 48.9568 35.2468 47.4087 35.8408 45.1922C36.0221 44.5149 35.6201 43.8185 34.9428 43.637Z" fill="url(#paint4_linear)"/>
</g>
<defs>
<linearGradient id="paint0_linear" x1="14.274" y1="22.7358" x2="14.274" y2="25.3221" gradientUnits="userSpaceOnUse">
<stop stop-color="#18BBEB"/>
<stop offset="1" stop-color="#0170B0"/>
</linearGradient>
<linearGradient id="paint1_linear" x1="30.9346" y1="2.78516" x2="30.9346" y2="58.6529" gradientUnits="userSpaceOnUse">
<stop stop-color="#18BBEB"/>
<stop offset="1" stop-color="#0170B0"/>
</linearGradient>
<linearGradient id="paint2_linear" x1="21.512" y1="30.9637" x2="21.512" y2="36.327" gradientUnits="userSpaceOnUse">
<stop stop-color="#18BBEB"/>
<stop offset="1" stop-color="#0170B0"/>
</linearGradient>
<linearGradient id="paint3_linear" x1="40.3574" y1="30.9637" x2="40.3574" y2="36.3271" gradientUnits="userSpaceOnUse">
<stop stop-color="#18BBEB"/>
<stop offset="1" stop-color="#0170B0"/>
</linearGradient>
<linearGradient id="paint4_linear" x1="30.935" y1="43.5934" x2="30.935" y2="48.9568" gradientUnits="userSpaceOnUse">
<stop stop-color="#18BBEB"/>
<stop offset="1" stop-color="#0170B0"/>
</linearGradient>
<clipPath id="clip0">
<rect width="60.9461" height="60.9461" fill="white" transform="translate(0.461548 0.246094)"/>
</clipPath>
</defs>
</svg>
