<svg width="62" height="62" viewBox="0 0 62 62" fill="none" xmlns="http://www.w3.org/2000/svg">
<g clip-path="url(#clip0)">
<path d="M55.3908 5.36914C54.5038 2.6561 52.0095 0.791806 49.1561 0.709106C46.1941 0.804566 44.3472 3.36969 43.6058 5.73869C43.4238 6.37336 43.2981 7.02314 43.231 7.68002C43.1885 8.00515 43.146 8.33122 43.0831 8.66013C43.0647 8.76173 43.0392 8.85011 43.0188 8.94557C33.6487 8.91579 28.9542 17.4112 28.0922 19.1706C27.5894 20.2088 27.3687 21.361 27.4523 22.5117L25.709 24.5801L24.5918 25.9C20.3732 25.1397 12.1552 26.2209 0.882906 39.5919C-0.230947 40.9137 -0.062711 42.8885 1.25907 44.0024C2.58086 45.1167 4.55574 44.948 5.66959 43.6262C6.33686 42.8342 6.98948 42.1031 7.618 41.4146L7.6284 41.4065V41.3985C18.1819 29.9372 24.0782 32.2178 24.0923 32.2188C25.4051 32.9659 27.0639 32.671 28.0383 31.5175L30.4399 28.6679L31.1507 29.0743C31.1667 29.0852 31.1842 29.0956 31.2017 29.1055L31.6351 29.3536L29.0751 32.3894C28.1163 33.5118 28.0813 35.1544 28.992 36.3165C29.0293 36.3732 32.3345 41.7945 22.7885 54.1787H22.7824V54.1887C22.2101 54.9301 21.5986 55.6924 20.9313 56.4844C20.1478 57.4149 19.9743 58.715 20.4861 59.8184C20.9979 60.9219 22.1023 61.6288 23.3187 61.6317C23.409 61.6317 23.4993 61.6279 23.59 61.6194C24.4175 61.5518 25.1835 61.1553 25.717 60.5188C36.9813 47.1568 36.6594 38.8783 35.194 34.8458L36.3112 33.5198L38.0375 31.4688C39.1929 31.3559 40.2973 30.9348 41.2349 30.2501C44.0576 28.2076 46.2961 25.461 47.7276 22.2839C48.3547 22.1261 48.9444 21.8463 49.4638 21.4607C50.3796 20.827 51.2392 20.1158 52.0332 19.3341C52.6782 18.7694 53.4282 18.337 54.2405 18.062C54.5449 17.9462 54.8639 17.8498 55.1777 17.7571C55.8128 17.5795 56.4314 17.346 57.0259 17.0596C59.2342 15.9283 61.4501 13.6741 61.0437 10.7418C60.4908 7.93237 58.2248 5.77839 55.3908 5.36914ZM40.7822 17.6007C41.0681 17.8521 41.4381 17.9878 41.819 17.9816C42.5297 17.9816 43.5907 17.5757 45.2541 16.3153C44.4474 18.0275 43.3789 19.6035 42.0869 20.9862C41.1205 21.9025 39.6626 22.0637 38.5195 21.3804L37.6982 20.9092L37.6514 20.8808L35.0347 19.3738C36.0134 17.1976 38.6192 14.8532 40.9466 13.1056C40.8044 13.3717 40.6702 13.6429 40.5482 13.918C40.2052 14.6755 39.4008 16.4373 40.7822 17.6007ZM39.9433 11.3146C37.5063 13.1118 34.4365 15.7823 33.1856 18.5402C32.2021 18.3502 31.1847 18.5856 30.3842 19.1871C31.5987 17.0615 34.6954 12.6141 39.9433 11.3146ZM3.36674 42.7094C3.07564 42.7378 2.78595 42.6461 2.56432 42.4557C2.1012 42.0639 2.04212 41.3716 2.43247 40.907C2.86298 40.3995 3.28735 39.9109 3.707 39.4378L5.38415 40.8541C4.96498 41.3253 4.54156 41.8115 4.1101 42.3233C3.92343 42.5459 3.65596 42.6848 3.36674 42.7094ZM6.76312 39.3584L5.07982 37.9398C9.94258 32.7854 14.0611 30.1456 17.3204 28.864L18.1228 30.9296C15.19 32.0747 11.3754 34.4914 6.76312 39.3584ZM30.6256 33.7036L33.4233 30.3843L34.1789 30.8167C34.1907 30.8238 34.2049 30.8257 34.2181 30.8327C34.2314 30.8398 34.2304 30.8441 34.2385 30.8483C34.6553 31.0374 35.09 31.1848 35.5361 31.2878L33.2494 34.0042C33.0013 34.2986 32.9412 34.7088 33.0944 35.0623C33.7796 36.7881 34.0239 38.6576 33.8051 40.502L31.6095 40.055C31.8222 38.3788 31.4957 36.678 30.6776 35.1993C30.6587 35.1705 30.6384 35.1426 30.6167 35.1161C30.2755 34.7041 30.2797 34.1062 30.6266 33.6994L30.6256 33.7036ZM26.6343 56.1087L24.9515 54.6872C28.9674 49.3188 30.7088 45.1493 31.3364 42.0658L33.5074 42.5072C32.8009 45.9385 30.8879 50.445 26.6343 56.1087ZM23.4114 59.6062C23.1203 59.6355 22.8301 59.5434 22.6089 59.352C22.1458 58.9607 22.0867 58.2679 22.4771 57.8038C22.9085 57.2958 23.3168 56.7883 23.7096 56.2997L25.3881 57.7155C24.9931 58.2098 24.5871 58.7093 24.1566 59.2201C23.9699 59.4432 23.701 59.5826 23.4114 59.6062ZM40.0497 28.606C39.2955 29.1527 38.3919 29.4557 37.4605 29.4741H37.4534C36.6642 29.4935 35.8797 29.3432 35.1534 29.0337L32.2452 27.3693L32.2007 27.3419L30.7183 26.4898C30.6847 26.4718 30.6469 26.4709 30.6167 26.4553C30.5543 26.427 30.4886 26.4052 30.4215 26.3906C30.361 26.3783 30.2996 26.3712 30.2377 26.3702C30.1696 26.3684 30.1016 26.3736 30.0349 26.3854C29.9735 26.3962 29.9135 26.4132 29.8558 26.4359C29.7944 26.4586 29.7348 26.4874 29.6796 26.5224C29.6233 26.5579 29.5709 26.5994 29.5241 26.6462C29.4929 26.6675 29.4626 26.6911 29.4348 26.7162L26.4897 30.2146C26.1466 30.6191 25.5639 30.7226 25.1027 30.4604C25.0729 30.4429 25.0422 30.4273 25.0105 30.4136C23.4147 29.8555 21.6827 29.8195 20.0651 30.312L19.2532 28.2232C21.0343 27.6953 22.9189 27.6216 24.7365 28.0082C25.1103 28.0989 25.5034 27.9704 25.7515 27.676L31.3496 21.0349C31.8236 20.4763 32.6284 20.3346 33.265 20.697L36.6013 22.61L36.649 22.6393L37.5124 23.1331C39.4476 24.2711 41.904 23.9804 43.5207 22.4224C44.9068 20.9593 46.0617 19.2939 46.9469 17.4831C46.3061 23.8803 40.7921 28.0701 40.0497 28.606ZM56.0996 15.244C55.6091 15.4756 55.0997 15.6646 54.5765 15.8087C54.224 15.9184 53.8719 16.028 53.5317 16.1551C52.4675 16.5228 51.4873 17.0984 50.6471 17.8479C50.0158 18.4542 49.3456 19.0194 48.6415 19.5392C49.1505 17.389 49.1557 15.1504 48.6566 12.9979C48.5541 12.5546 48.1689 12.2332 47.7143 12.212C47.3448 12.2058 46.9998 12.3963 46.8075 12.7115C46.3396 12.8693 45.9096 13.1217 45.5433 13.453C44.5264 14.468 43.3393 15.2974 42.0359 15.9032C42.0827 15.4973 42.2074 15.1046 42.4036 14.7464C42.8284 13.8433 43.3298 12.9776 43.9016 12.1591C44.4961 11.2059 44.8969 10.1445 45.0802 9.03583C45.1492 8.67336 45.1979 8.30854 45.2456 7.94418C45.3014 7.40356 45.403 6.86814 45.5504 6.345C46.058 4.7203 47.3263 2.80024 49.2303 2.73928C51.3697 2.85269 53.1617 4.39753 53.5898 6.49622C53.5898 6.50946 53.6007 6.51844 53.6026 6.53167C53.6049 6.5449 53.6026 6.56144 53.6026 6.57656C53.905 7.7561 53.8927 8.99471 53.5671 10.1681C53.3497 10.6851 53.5926 11.2805 54.1096 11.4984C54.6266 11.7158 55.2221 11.4729 55.4395 10.9559C55.8307 9.86755 55.9565 8.70125 55.8071 7.55431C57.4342 8.03256 58.6714 9.35812 59.0362 11.014C59.2933 12.8934 57.6157 14.4685 56.0996 15.244Z" fill="url(#paint0_linear)"/>
<path d="M35.6439 25.0684C35.6439 25.6294 35.1893 26.084 34.6284 26.084C34.0679 26.084 33.6133 25.6294 33.6133 25.0684C33.6133 24.5075 34.0679 24.0529 34.6284 24.0529C35.1893 24.0529 35.6439 24.5075 35.6439 25.0684Z" fill="url(#paint1_linear)"/>
<path d="M51.1962 4.81166C50.1282 4.44306 48.952 4.5612 47.9785 5.1349C47.1657 5.7724 46.7276 6.77662 46.8136 7.80635C46.8136 8.3673 47.2682 8.82191 47.8291 8.82191C48.3901 8.82191 48.8447 8.3673 48.8447 7.80635C48.8017 7.43586 48.9175 7.06441 49.1632 6.78371C49.6065 6.59373 50.1051 6.57814 50.5597 6.74023C51.0923 6.91603 51.6669 6.62634 51.8427 6.09375C52.0185 5.56116 51.7288 4.98652 51.1962 4.81072V4.81166Z" fill="url(#paint2_linear)"/>
</g>
<defs>
<linearGradient id="paint0_linear" x1="30.6192" y1="0.709106" x2="30.6192" y2="61.6317" gradientUnits="userSpaceOnUse">
<stop stop-color="#18BBEB"/>
<stop offset="1" stop-color="#0170B0"/>
</linearGradient>
<linearGradient id="paint1_linear" x1="34.6286" y1="24.0529" x2="34.6286" y2="26.084" gradientUnits="userSpaceOnUse">
<stop stop-color="#18BBEB"/>
<stop offset="1" stop-color="#0170B0"/>
</linearGradient>
<linearGradient id="paint2_linear" x1="49.3485" y1="4.60059" x2="49.3485" y2="8.82191" gradientUnits="userSpaceOnUse">
<stop stop-color="#18BBEB"/>
<stop offset="1" stop-color="#0170B0"/>
</linearGradient>
<clipPath id="clip0">
<rect width="60.9461" height="60.9461" fill="white" transform="translate(0.146179 0.615479)"/>
</clipPath>
</defs>
</svg>
