<svg width="62" height="62" viewBox="0 0 62 62" fill="none" xmlns="http://www.w3.org/2000/svg">
<g clip-path="url(#clip0)">
<path d="M55.705 38.7763V37.1847C55.705 35.502 54.3408 34.1373 52.6576 34.1373H50.6261C48.9462 34.1373 47.5834 35.4969 47.5787 37.1768C45.5822 36.9145 43.5158 36.7104 41.4844 36.5579V35.1532C41.4844 33.4705 40.1202 32.1058 38.4375 32.1058H36.406C34.7228 32.1058 33.3586 33.4705 33.3586 35.1532V36.1864C32.6477 36.1752 31.9711 36.1692 31.3272 36.1692C30.6832 36.1692 30.0066 36.1752 29.2957 36.1864V35.1532C29.2957 33.4705 27.9315 32.1058 26.2483 32.1058H24.2169C22.5341 32.1058 21.1699 33.4705 21.1699 35.1532V36.5579C19.1385 36.7104 17.0712 36.9145 15.0751 37.1768C15.0709 35.4969 13.7076 34.1373 12.0282 34.1373H9.99673C8.31354 34.1373 6.94932 35.502 6.94932 37.1847V38.7763C3.31094 39.8448 0.85498 41.3066 0.85498 43.279L0.85498 51.4053C0.857305 52.1274 1.24416 52.7941 1.87047 53.154V54.4522C1.87047 56.1354 3.23515 57.4996 4.91787 57.4996H6.12075C6.54945 58.7127 7.6942 59.5255 8.98077 59.5311H12.0282C12.5531 59.5278 13.0678 59.3879 13.5221 59.1247C14.0778 60.0081 15.0477 60.5447 16.0911 60.5466H20.154C20.6789 60.5438 21.1941 60.4038 21.6484 60.1406C22.2035 61.0236 23.1735 61.5607 24.2169 61.5625H29.2957C30.0476 61.5597 30.772 61.2775 31.3272 60.7702C31.8823 61.2775 32.6067 61.5597 33.3586 61.5625H38.4375C39.4808 61.5607 40.4503 61.0236 41.0059 60.1406C41.4602 60.4038 41.9754 60.5438 42.5003 60.5466H46.5632C47.6066 60.5447 48.5766 60.0081 49.1322 59.1247C49.586 59.3879 50.1012 59.5278 50.6261 59.5311H53.6735C54.9601 59.5255 56.1049 58.7127 56.5336 57.4996H57.7364C59.4192 57.4996 60.7834 56.1354 60.7834 54.4522V53.154C61.4101 52.7941 61.797 52.1274 61.7993 51.4053V43.279C61.7993 41.3066 59.3434 39.8448 55.705 38.7763ZM49.6106 37.1847C49.6106 36.6239 50.0654 36.1692 50.6261 36.1692H52.6576C53.2188 36.1692 53.6735 36.6239 53.6735 37.1847V38.2453C52.4018 37.9505 51.0325 37.6924 49.6106 37.4692V37.1847ZM35.39 35.1532C35.39 34.5925 35.8448 34.1373 36.406 34.1373H38.4375C38.9982 34.1373 39.4529 34.5925 39.4529 35.1532V36.4207C38.0543 36.3366 36.6901 36.2766 35.39 36.2362V35.1532ZM23.2014 35.1532C23.2014 34.5925 23.6561 34.1373 24.2169 34.1373H26.2483C26.8095 34.1373 27.2643 34.5925 27.2643 35.1532V36.2362C25.9642 36.2766 24.6 36.3375 23.2014 36.4207V35.1532ZM8.98077 37.1847C8.98077 36.6239 9.43551 36.1692 9.99673 36.1692H12.0282C12.5889 36.1692 13.0437 36.6239 13.0437 37.1847V37.4692C11.6218 37.6924 10.2525 37.9505 8.98077 38.2453V37.1847ZM31.3272 38.2006C49.7292 38.2006 59.7679 41.5526 59.7679 43.279V49.2994C59.2745 48.8517 58.6287 48.609 57.9629 48.6211C57.3091 48.6229 56.6735 48.8368 56.1518 49.2302C55.42 47.9389 54.0278 47.1652 52.5451 47.2252C51.1562 47.2285 49.8329 47.8167 48.8992 48.8456C48.0693 47.4912 46.566 46.6979 44.9796 46.7775C43.3675 46.777 41.8359 47.4823 40.7879 48.7071C39.8905 47.1531 38.198 46.2334 36.406 46.3264C34.362 46.3278 32.4547 47.354 31.3272 49.0586C30.1996 47.354 28.2923 46.3278 26.2483 46.3264C24.4545 46.233 22.7601 47.1545 21.8636 48.7113C20.8156 47.4861 19.2835 46.7812 17.6715 46.7816C16.0869 46.7026 14.5855 47.4935 13.7551 48.8456C12.8214 47.819 11.4995 47.2327 10.1125 47.2294C8.62832 47.168 7.23481 47.9422 6.50249 49.2343C5.98079 48.8405 5.34518 48.6266 4.69144 48.6248C4.02607 48.6122 3.38022 48.8531 2.88643 49.2994V43.279C2.88643 41.5526 12.9251 38.2006 31.3272 38.2006ZM3.90238 54.4522V51.7433C3.90238 51.5615 3.93958 50.6525 4.69144 50.6525C5.46793 50.779 6.01195 51.4876 5.93383 52.2706V55.4682H4.91787C4.35712 55.4682 3.90238 55.0134 3.90238 54.4522ZM12.0282 57.4996H8.98077C8.42002 57.4996 7.96528 57.0449 7.96528 56.4837V51.4053C7.92762 50.8259 8.1415 50.2582 8.55207 49.8476C8.96264 49.4371 9.5299 49.2232 10.1092 49.2608C11.7292 49.2627 13.0423 50.5753 13.0437 52.1953V56.4837C13.0437 57.0449 12.5889 57.4996 12.0282 57.4996ZM20.154 58.5151H16.0911C15.5299 58.5151 15.0751 58.0604 15.0751 57.4996V51.4053C15.0412 50.7064 15.3039 50.0262 15.7981 49.5319C16.2929 49.0372 16.9731 48.775 17.6715 48.8089C19.603 48.8112 21.1681 50.3768 21.1699 52.3083V57.4996C21.1699 58.0604 20.7152 58.5151 20.154 58.5151ZM29.2957 59.5311H24.2169C23.6561 59.5311 23.2014 59.0763 23.2014 58.5151V51.4053C23.1614 50.5855 23.4701 49.7872 24.0499 49.2069C24.6302 48.6266 25.4286 48.3184 26.2483 48.3579C28.4922 48.3579 30.3112 50.1768 30.3112 52.4208V58.5151C30.3112 59.0763 29.8565 59.5311 29.2957 59.5311ZM39.4529 58.5151C39.4529 59.0763 38.9982 59.5311 38.4375 59.5311H33.3586C32.7978 59.5311 32.3426 59.0763 32.3426 58.5151V52.4208C32.3426 50.1768 34.1621 48.3579 36.406 48.3579C37.2253 48.3184 38.0236 48.6266 38.6039 49.2069C39.1842 49.7872 39.4925 50.5855 39.4529 51.4053V58.5151ZM47.5787 57.4996C47.5787 58.0604 47.124 58.5151 46.5632 58.5151H42.5003C41.9391 58.5151 41.4844 58.0604 41.4844 57.4996V52.3083C41.4862 50.3768 43.0513 48.8112 44.9828 48.8089C45.6812 48.775 46.3614 49.0372 46.8562 49.5319C47.3504 50.0262 47.6131 50.7064 47.5787 51.4053V57.4996ZM54.689 56.4837C54.689 57.0449 54.2343 57.4996 53.6735 57.4996H50.6261C50.0654 57.4996 49.6106 57.0449 49.6106 56.4837V52.1953C49.612 50.5753 50.9251 49.2627 52.5451 49.2608C53.1244 49.2232 53.6917 49.4371 54.1022 49.8476C54.5128 50.2582 54.7267 50.8259 54.689 51.4053V56.4837ZM58.7519 54.4522C58.7519 55.0134 58.2972 55.4682 57.7364 55.4682H56.7205V52.2706C56.6424 51.4876 57.1864 50.779 57.9629 50.6525C58.7147 50.6525 58.7519 51.5666 58.7519 51.7433V54.4522Z" fill="url(#paint0_linear)"/>
<path d="M61.4111 2.83283L61.7324 1.99914C61.9337 1.47512 61.6724 0.886938 61.1484 0.685607C60.6243 0.484276 60.0362 0.745588 59.8348 1.26961L59.5149 2.10376C56.7739 9.14431 50.0059 13.7926 42.4506 13.8233L20.2056 13.8233C12.6498 13.7935 5.88036 9.14524 3.13937 2.10376L2.81947 1.26961C2.61814 0.745588 2.02995 0.484276 1.50594 0.685607C0.981916 0.886938 0.720604 1.47512 0.921935 1.99914L1.24276 2.83283C4.28877 10.6559 11.8087 15.8203 20.2037 15.8547L42.4483 15.8547C50.8442 15.8213 58.3651 10.6564 61.4111 2.83283Z" fill="url(#paint1_linear)"/>
<path d="M25.2327 30.0743C25.7935 30.0743 26.2482 29.6196 26.2482 29.0588V21.3534L27.5617 22.6669C27.9602 23.0514 28.594 23.0463 28.9855 22.6543C29.3774 22.2624 29.383 21.6291 28.998 21.2306L25.9506 18.1832C25.9418 18.1739 25.9292 18.1711 25.9204 18.1628C25.8334 18.0777 25.7325 18.0093 25.6214 17.9596C25.6135 17.9596 25.6033 17.9596 25.5954 17.9535C25.4926 17.9154 25.3848 17.894 25.275 17.8907C25.2411 17.8907 25.2076 17.8931 25.1737 17.8968C25.0886 17.9019 25.0044 17.9182 24.924 17.9456C24.8891 17.9554 24.8552 17.967 24.8221 17.981C24.7092 18.0293 24.6059 18.0986 24.5176 18.1841L21.4702 21.2315C21.0852 21.63 21.0908 22.2633 21.4827 22.6553C21.8742 23.0472 22.508 23.0528 22.9065 22.6678L24.2168 21.3534V29.0588C24.2168 29.6196 24.6715 30.0743 25.2327 30.0743Z" fill="url(#paint2_linear)"/>
<path d="M37.4215 30.0743C37.9827 30.0743 38.4375 29.6196 38.4375 29.0588V21.3534L39.7505 22.6669C40.149 23.0514 40.7828 23.0463 41.1747 22.6543C41.5662 22.2624 41.5718 21.6291 41.1868 21.2306L38.1399 18.1832C38.1306 18.1739 38.1185 18.1711 38.1092 18.1628C38.0227 18.0777 37.9213 18.0093 37.8107 17.9596C37.8023 17.9596 37.7921 17.9596 37.7842 17.9535C37.6819 17.9154 37.5736 17.894 37.4643 17.8907C37.4303 17.8907 37.3964 17.8931 37.3625 17.8968C37.2774 17.9019 37.1937 17.9182 37.1128 17.9456C37.0784 17.9554 37.0444 17.967 37.0114 17.981C36.898 18.0293 36.7947 18.0986 36.7064 18.1841L33.6594 21.2315C33.2745 21.63 33.28 22.2633 33.6715 22.6553C34.0635 23.0472 34.6968 23.0528 35.0957 22.6678L36.406 21.3534V29.0588C36.406 29.6196 36.8608 30.0743 37.4215 30.0743Z" fill="url(#paint3_linear)"/>
<path d="M51.6421 32.1058C52.2028 32.1058 52.6576 31.6511 52.6576 31.0903V23.3849L53.9711 24.6984C54.3696 25.0829 55.0029 25.0778 55.3948 24.6858C55.7868 24.2939 55.7924 23.6606 55.4074 23.2621L52.36 20.2147C52.3507 20.2054 52.3386 20.2026 52.3298 20.1942C52.2428 20.1096 52.1419 20.0408 52.0308 19.9911C52.022 19.9911 52.0127 19.9911 52.0034 19.985C51.9011 19.9473 51.7937 19.926 51.6844 19.9222C51.6505 19.9222 51.6165 19.9246 51.583 19.9283C51.4975 19.9334 51.4133 19.9497 51.332 19.9771C51.2985 19.9883 51.2659 19.9976 51.2306 20.0115C51.1176 20.0603 51.0144 20.1292 50.926 20.2147L47.8786 23.2621C47.4936 23.6606 47.4992 24.2939 47.8912 24.6858C48.2827 25.0778 48.9164 25.0829 49.3149 24.6984L50.6261 23.3849V31.0903C50.6261 31.6511 51.0809 32.1058 51.6421 32.1058Z" fill="url(#paint4_linear)"/>
<path d="M9.9967 32.1057C10.5575 32.1057 11.0122 31.651 11.0122 31.0902V23.3848L12.3257 24.6983C12.7242 25.0828 13.358 25.0777 13.7495 24.6857C14.1414 24.2938 14.147 23.6605 13.762 23.262L10.7146 20.2146C10.7058 20.2053 10.6932 20.2025 10.6844 20.1941C10.5974 20.1095 10.4965 20.0407 10.3854 19.9909C10.3775 19.9909 10.3673 19.9909 10.358 19.9849C10.2562 19.9468 10.1483 19.9258 10.039 19.9231C10.0055 19.9226 9.97159 19.924 9.93765 19.9282C9.85209 19.9333 9.76793 19.9496 9.68656 19.977C9.53405 20.0212 9.39456 20.1021 9.28065 20.2127L6.23324 23.2597C5.84825 23.6582 5.85383 24.2919 6.2458 24.6839C6.6373 25.0754 7.27105 25.081 7.66953 24.696L8.98074 23.3848V31.0902C8.98074 31.651 9.43548 32.1057 9.9967 32.1057Z" fill="url(#paint5_linear)"/>
</g>
<defs>
<linearGradient id="paint0_linear" x1="31.3272" y1="32.1058" x2="31.3272" y2="61.5625" gradientUnits="userSpaceOnUse">
<stop stop-color="#18BBEB"/>
<stop offset="1" stop-color="#0170B0"/>
</linearGradient>
<linearGradient id="paint1_linear" x1="31.3272" y1="0.617676" x2="31.3272" y2="15.8547" gradientUnits="userSpaceOnUse">
<stop stop-color="#18BBEB"/>
<stop offset="1" stop-color="#0170B0"/>
</linearGradient>
<linearGradient id="paint2_linear" x1="25.2341" y1="17.8907" x2="25.2341" y2="30.0743" gradientUnits="userSpaceOnUse">
<stop stop-color="#18BBEB"/>
<stop offset="1" stop-color="#0170B0"/>
</linearGradient>
<linearGradient id="paint3_linear" x1="37.4231" y1="17.8907" x2="37.4231" y2="30.0743" gradientUnits="userSpaceOnUse">
<stop stop-color="#18BBEB"/>
<stop offset="1" stop-color="#0170B0"/>
</linearGradient>
<linearGradient id="paint4_linear" x1="51.643" y1="19.9222" x2="51.643" y2="32.1058" gradientUnits="userSpaceOnUse">
<stop stop-color="#18BBEB"/>
<stop offset="1" stop-color="#0170B0"/>
</linearGradient>
<linearGradient id="paint5_linear" x1="9.99763" y1="19.923" x2="9.99763" y2="32.1057" gradientUnits="userSpaceOnUse">
<stop stop-color="#18BBEB"/>
<stop offset="1" stop-color="#0170B0"/>
</linearGradient>
<clipPath id="clip0">
<rect width="60.9461" height="60.9461" fill="white" transform="translate(0.854004 0.615356)"/>
</clipPath>
</defs>
</svg>
