<svg width="52" height="51" viewBox="0 0 52 51" fill="none" xmlns="http://www.w3.org/2000/svg">
<path d="M34.0034 0H18.3684C4.08897 0 0.692383 3.39658 0.692383 17.6505V33.2855C0.692383 47.5624 4.06349 50.9615 18.3429 50.9615H33.9779C48.2547 50.9615 51.6539 47.5904 51.6539 33.311V17.676C51.6539 3.39658 48.2828 0 34.0034 0ZM41.8336 36.361H38.116C36.7094 36.361 36.2864 35.222 33.7638 32.6994C31.5623 30.5769 30.6323 30.3119 30.0742 30.3119C29.3047 30.3119 29.0932 30.5234 29.0932 31.5859V34.929C29.0932 35.8336 28.8002 36.3636 26.4381 36.3636C24.1457 36.2095 21.9227 35.5131 19.9523 34.3316C17.9818 33.1501 16.3202 31.5173 15.1043 29.5679C12.2178 25.9751 10.2093 21.7583 9.23863 17.253C9.23863 16.695 9.45012 16.1905 10.5127 16.1905H14.2278C15.1833 16.1905 15.5273 16.616 15.9018 17.597C17.7059 22.9072 20.784 27.5243 22.0325 27.5243C22.5115 27.5243 22.7205 27.3128 22.7205 26.1178V20.6496C22.5625 18.155 21.2375 17.9435 21.2375 17.0415C21.2545 16.8036 21.3636 16.5817 21.5415 16.4228C21.7194 16.2639 21.9522 16.1806 22.1905 16.1905H28.0307C28.8282 16.1905 29.0932 16.588 29.0932 17.5435V24.9227C29.0932 25.7203 29.4372 25.9853 29.6767 25.9853C30.1558 25.9853 30.5252 25.7203 31.4018 24.8437C33.2845 22.5478 34.8227 19.9898 35.9679 17.2505C36.085 16.9214 36.3065 16.6397 36.5986 16.4483C36.8908 16.2569 37.2375 16.1664 37.586 16.1905H41.3036C42.4171 16.1905 42.6541 16.7485 42.4171 17.5435C41.0653 20.5717 39.3927 23.4462 37.428 26.1178C37.0279 26.7293 36.8674 27.0478 37.428 27.7638C37.7974 28.3218 39.0995 29.4099 39.9761 30.4444C41.2498 31.715 42.3076 33.185 43.1076 34.7965C43.4261 35.831 42.8936 36.3636 41.8336 36.3636V36.361Z" fill="url(#paint0_linear)"/>
<defs>
<linearGradient id="paint0_linear" x1="10.0988" y1="85.9975" x2="-42.6249" y2="30.5051" gradientUnits="userSpaceOnUse">
<stop stop-color="#0170B0"/>
<stop offset="1" stop-color="#18BBEB"/>
</linearGradient>
</defs>
</svg>
