<svg width="51" height="51" viewBox="0 0 51 51" fill="none" xmlns="http://www.w3.org/2000/svg">
<path d="M50.9615 11.5937C50.9329 10.4944 50.8478 9.39731 50.7067 8.30672C50.5164 7.35151 50.1994 6.42601 49.7639 5.5548C49.3085 4.60973 48.6968 3.74829 47.9548 3.00673C47.2059 2.2734 46.3459 1.66285 45.4067 1.1976C44.5343 0.770651 43.6088 0.462153 42.6548 0.280288C41.5746 0.118484 40.4852 0.0248695 39.3932 0H11.5937C10.4944 0.0286312 9.39731 0.113679 8.30672 0.254807C7.35151 0.445068 6.42601 0.762138 5.5548 1.1976C4.60973 1.65303 3.74829 2.26466 3.00673 3.00673C2.2734 3.75563 1.66285 4.61557 1.1976 5.5548C0.770651 6.42717 0.462153 7.35266 0.280288 8.30672C0.118484 9.38694 0.0248695 10.4763 0 11.5683V39.3678C0.0286312 40.4671 0.113679 41.5642 0.254807 42.6548C0.445068 43.61 0.762138 44.5355 1.1976 45.4067C1.65303 46.3518 2.26466 47.2132 3.00673 47.9548C3.75563 48.6881 4.61557 49.2986 5.5548 49.7639C6.42717 50.1908 7.35266 50.4993 8.30672 50.6812C9.38694 50.843 10.4763 50.9366 11.5683 50.9615H39.3678C40.4671 50.9329 41.5642 50.8478 42.6548 50.7067C43.61 50.5164 44.5355 50.1994 45.4067 49.7639C46.3518 49.3085 47.2132 48.6968 47.9548 47.9548C48.6881 47.2059 49.2986 46.3459 49.7639 45.4067C50.1908 44.5343 50.4993 43.6088 50.6812 42.6548C50.843 41.5746 50.9366 40.4852 50.9615 39.3932V12.9442V11.5937ZM26.0668 43.3173C23.0067 43.3022 20.0002 42.5133 17.3269 41.024L7.64422 43.5721L10.1923 34.0932C8.54908 31.3323 7.66967 28.184 7.64422 24.9711C7.65437 21.3603 8.73277 17.8333 10.7436 14.8341C12.7544 11.835 15.6078 9.49803 18.9442 8.11744C22.2807 6.73686 25.9511 6.37444 29.4932 7.07585C33.0352 7.77725 36.2905 9.5111 38.849 12.059C41.4076 14.607 43.155 17.855 43.8711 21.3941C44.5872 24.9332 44.2401 28.6051 42.8734 31.9473C41.5067 35.2895 39.1815 38.1525 36.1908 40.1758C33.2001 42.1991 29.6775 43.2921 26.0668 43.3173ZM26.0668 9.86105C23.3654 9.89196 20.7203 10.6382 18.4011 12.0237C16.0818 13.4092 14.1711 15.3846 12.8634 17.7487C11.5558 20.1127 10.898 22.7811 10.9569 25.4821C11.0159 28.1831 11.7895 30.8202 13.199 33.125L13.5558 33.711L12.0269 39.2913L17.8365 37.7115L18.3971 38.0428C20.7148 39.4079 23.3516 40.1374 26.0413 40.1577C30.0961 40.1577 33.9847 38.5469 36.8519 35.6798C39.719 32.8126 41.3298 28.924 41.3298 24.8692C41.3298 20.8145 39.719 16.9258 36.8519 14.0586C33.9847 11.1915 30.0961 9.58076 26.0413 9.58076L26.0668 9.86105ZM34.9851 31.5706C34.6513 32.1273 34.2045 32.6077 33.6734 32.9808C33.1423 33.3539 32.5388 33.6114 31.9019 33.7365C30.9503 33.9104 29.9706 33.8492 29.048 33.5581C28.18 33.2868 27.3292 32.9634 26.5 32.5899C23.3499 31.0092 20.6635 28.6388 18.7029 25.7101C17.6375 24.3532 16.991 22.7149 16.8428 20.9961C16.8276 20.2821 16.9627 19.5729 17.2392 18.9145C17.5158 18.256 17.9276 17.6631 18.4481 17.174C18.6014 17.0002 18.7894 16.8605 19.0001 16.7639C19.2108 16.6674 19.4394 16.6161 19.6711 16.6134H20.3846C20.6649 16.6134 21.0471 16.6134 21.4038 17.4034C21.7606 18.1933 22.7033 20.563 22.8307 20.7923C22.8934 20.9145 22.926 21.0499 22.926 21.1872C22.926 21.3246 22.8934 21.46 22.8307 21.5822C22.7181 21.8591 22.5634 22.1169 22.3721 22.3466C22.1428 22.6269 21.888 22.9582 21.6841 23.162C21.4803 23.3658 21.2255 23.6207 21.4803 24.0793C22.1736 25.2494 23.0317 26.3135 24.0283 27.2389C25.1136 28.1979 26.3545 28.9648 27.6976 29.5067C28.1562 29.736 28.4365 29.7106 28.6913 29.5067C28.9461 29.3029 29.838 28.1817 30.1437 27.7231C30.4495 27.2644 30.7553 27.3408 31.163 27.4937C31.5706 27.6466 33.8384 28.7423 34.2971 28.9716C34.7557 29.2009 35.036 29.3029 35.1634 29.5067C35.2739 30.1736 35.2125 30.8576 34.9851 31.4942V31.5706Z" fill="url(#paint0_linear)"/>
<defs>
<linearGradient id="paint0_linear" x1="9.40644" y1="85.9975" x2="-43.3173" y2="30.5051" gradientUnits="userSpaceOnUse">
<stop stop-color="#0170B0"/>
<stop offset="1" stop-color="#18BBEB"/>
</linearGradient>
</defs>
</svg>
