<svg width="1920" height="703" viewBox="0 0 1920 703" fill="none" xmlns="http://www.w3.org/2000/svg">
<path d="M1938 702.5C1826.83 413.5 1362.5 131 985.5 498C608.5 865 75.3333 544.667 -175 1" stroke="#18BBEB" stroke-opacity="0.4"/>
<circle r="11" transform="matrix(-1 0 0 1 650 653)" fill="white"/>
<circle r="10.5" transform="matrix(-1 0 0 1 650 653)" stroke="#18BBEB" stroke-opacity="0.4"/>
<path d="M1526 347C1526 353.075 1530.92 358 1537 358C1543.08 358 1548 353.075 1548 347C1548 340.925 1543.08 336 1537 336C1530.92 336 1526 340.925 1526 347Z" fill="white"/>
<path d="M1526.5 347C1526.5 352.799 1531.2 357.5 1537 357.5C1542.8 357.5 1547.5 352.799 1547.5 347C1547.5 341.201 1542.8 336.5 1537 336.5C1531.2 336.5 1526.5 341.201 1526.5 347Z" stroke="#18BBEB" stroke-opacity="0.4"/>
<circle r="11" transform="matrix(-1 0 0 1 243 523)" fill="white"/>
<circle r="10.5" transform="matrix(-1 0 0 1 243 523)" stroke="#18BBEB" stroke-opacity="0.4"/>
</svg>
