<svg width="51" height="51" viewBox="0 0 51 51" fill="none" xmlns="http://www.w3.org/2000/svg">
<path d="M50.8359 15.0415C50.8074 12.9018 50.4062 10.7833 49.6502 8.78082C48.9946 7.09176 47.9934 5.55779 46.7104 4.27692C45.4274 2.99605 43.8908 1.99645 42.199 1.34198C40.219 0.599958 38.1272 0.19873 36.0127 0.155388C33.2903 0.033903 32.4272 0 25.5165 0C18.6058 0 17.72 1.89846e-07 15.0174 0.155388C12.9039 0.199049 10.8131 0.600271 8.83402 1.34198C7.14188 1.996 5.60512 2.99543 4.32206 4.27636C3.039 5.55729 2.03789 7.09149 1.38279 8.78082C0.638043 10.756 0.237018 12.8438 0.197051 14.9539C0.0753634 17.6746 0.0385742 18.5363 0.0385742 25.4355C0.0385742 32.3348 0.0385742 33.2162 0.197051 35.9171C0.2395 38.0304 0.63852 40.1154 1.38279 42.0959C2.03899 43.7847 3.04084 45.3183 4.32433 46.5987C5.60782 47.8791 7.14473 48.8781 8.83685 49.5319C10.8105 50.3038 12.9017 50.7337 15.0203 50.8033C17.7455 50.9248 18.6086 50.9615 25.5193 50.9615C32.43 50.9615 33.3158 50.9615 36.0184 50.8033C38.1328 50.7617 40.2247 50.3614 42.2046 49.6195C43.8961 48.9643 45.4322 47.9644 46.7151 46.6837C47.998 45.4029 48.9995 43.8693 49.6559 42.1807C50.4001 40.203 50.7991 38.118 50.8416 36.0019C50.9633 33.284 51.0001 32.4223 51.0001 25.5203C50.9944 18.6211 50.9944 17.7453 50.8359 15.0415ZM25.4995 38.4825C18.2719 38.4825 12.4167 32.6371 12.4167 25.4214C12.4167 18.2058 18.2719 12.3604 25.4995 12.3604C28.9693 12.3604 32.2969 13.7365 34.7505 16.1859C37.2039 18.6353 38.5823 21.9574 38.5823 25.4214C38.5823 28.8854 37.2039 32.2076 34.7505 34.657C32.2969 37.1064 28.9693 38.4825 25.4995 38.4825ZM39.103 14.9229C37.4135 14.9229 36.0523 13.5611 36.0523 11.8773C36.0523 11.4775 36.1312 11.0816 36.2845 10.7123C36.4377 10.343 36.6623 10.0074 36.9455 9.7247C37.2286 9.44202 37.5648 9.21779 37.9347 9.06481C38.3047 8.91182 38.7012 8.83308 39.1016 8.83308C39.502 8.83308 39.8986 8.91182 40.2685 9.06481C40.6385 9.21779 40.9746 9.44202 41.2578 9.7247C41.5409 10.0074 41.7655 10.343 41.9188 10.7123C42.072 11.0816 42.1509 11.4775 42.1509 11.8773C42.1509 13.5611 40.7868 14.9229 39.103 14.9229Z" fill="url(#paint0_linear)"/>
<path d="M25.4994 33.9064C30.1928 33.9064 33.9977 30.1079 33.9977 25.4222C33.9977 20.7366 30.1928 16.9381 25.4994 16.9381C20.8059 16.9381 17.0011 20.7366 17.0011 25.4222C17.0011 30.1079 20.8059 33.9064 25.4994 33.9064Z" fill="url(#paint1_linear)"/>
<defs>
<linearGradient id="paint0_linear" x1="9.44502" y1="85.9975" x2="-43.2787" y2="30.5051" gradientUnits="userSpaceOnUse">
<stop stop-color="#0170B0"/>
<stop offset="1" stop-color="#18BBEB"/>
</linearGradient>
<linearGradient id="paint1_linear" x1="9.44502" y1="85.9975" x2="-43.2787" y2="30.5051" gradientUnits="userSpaceOnUse">
<stop stop-color="#0170B0"/>
<stop offset="1" stop-color="#18BBEB"/>
</linearGradient>
</defs>
</svg>
