<svg width="30" height="41" viewBox="0 0 30 41" fill="none" xmlns="http://www.w3.org/2000/svg">
<path d="M14.9999 2.14726C22.3484 2.14726 28.3268 8.1467 28.3268 15.5211C28.3268 15.9098 28.6409 16.225 29.0282 16.225C29.4156 16.225 29.7296 15.9098 29.7296 15.5211C29.7296 7.37046 23.1219 0.739502 14.9999 0.739502C6.87799 0.739502 0.270264 7.37046 0.270264 15.5211C0.270264 20.7119 1.63995 25.8126 4.23135 30.2718C6.74557 34.5982 10.3458 38.2327 14.6429 40.7826C14.753 40.8479 14.8764 40.8806 14.9999 40.8806C15.1233 40.8806 15.2467 40.8479 15.3568 40.7829C19.1105 38.5555 22.378 35.4547 24.8059 31.8159C27.2859 28.0992 28.9022 23.7944 29.4803 19.3667C29.5306 18.9813 29.2601 18.6278 28.876 18.5773C28.4913 18.5265 28.1397 18.7983 28.0894 19.1838C27.0077 27.4682 22.1259 34.9779 14.9997 39.3553C6.76862 34.3011 1.67307 25.208 1.67307 15.5211C1.67307 8.1467 7.65151 2.14726 14.9999 2.14726Z" fill="url(#paint0_linear)"/>
<path d="M14.9999 6.37068C9.97205 6.37068 5.88158 10.4756 5.88158 15.5212C5.88158 15.9099 6.19565 16.2251 6.58299 16.2251C6.97033 16.2251 7.2844 15.9099 7.2844 15.5212C7.2844 11.2518 10.7456 7.77844 14.9999 7.77844C19.2543 7.77844 22.7155 11.2518 22.7155 15.5212C22.7155 19.7906 19.2543 23.264 14.9999 23.264C11.735 23.264 8.81064 21.1896 7.7233 18.1021C7.59416 17.7356 7.19361 17.5435 6.82822 17.6731C6.46299 17.8027 6.27158 18.2049 6.40065 18.5713C7.6858 22.2201 11.1417 24.6717 14.9999 24.6717C20.0278 24.6717 24.1183 20.5668 24.1183 15.5212C24.1183 10.4756 20.0278 6.37068 14.9999 6.37068Z" fill="url(#paint1_linear)"/>
<defs>
<linearGradient id="paint0_linear" x1="14.9999" y1="6.37062" x2="14.9999" y2="24.6717" gradientUnits="userSpaceOnUse">
<stop stop-color="#18BBEB"/>
<stop offset="1" stop-color="#0196C5"/>
</linearGradient>
<linearGradient id="paint1_linear" x1="14.9999" y1="6.37062" x2="14.9999" y2="24.6717" gradientUnits="userSpaceOnUse">
<stop stop-color="#18BBEB"/>
<stop offset="1" stop-color="#0196C5"/>
</linearGradient>
</defs>
</svg>
