<svg width="61" height="61" viewBox="0 0 61 61" fill="none" xmlns="http://www.w3.org/2000/svg">
<g clip-path="url(#clip0)">
<path d="M60.0085 44.6626H34.4848C34.7191 44.1174 34.9789 43.5652 35.2826 42.9978C35.6308 42.3431 36.0125 41.7139 36.3933 41.0856C37.1486 39.9126 37.801 38.6763 38.3429 37.3905C40.1876 32.6887 40.6775 26.2503 36.5373 22.2817C32.5338 18.4387 25.4548 18.2956 20.9255 21.8046C16.3947 18.2956 9.31437 18.4397 5.31503 22.2803C1.17067 26.2503 1.66102 32.6887 3.50811 37.3914C4.05137 38.6777 4.70469 39.915 5.46148 41.0884C5.84082 41.7158 6.22251 42.344 6.56973 42.9978C6.87443 43.5652 7.1333 44.1141 7.36667 44.6626H1.13524C0.574505 44.6626 0.120056 45.117 0.120056 45.6773C0.120056 46.238 0.574505 46.6925 1.13524 46.6925H8.0781C8.28359 47.3897 8.43146 48.1026 8.52074 48.8239C8.73237 51.2162 9.13486 53.5876 9.72441 55.9151C10.1987 57.6744 11.0816 60.95 14.0119 60.95C14.8646 60.95 17.4633 60.95 19.1644 48.7479C19.4946 46.4133 20.4304 46.1568 20.9245 46.0906C21.4168 46.1558 22.3569 46.4095 22.688 48.746C24.3872 60.95 26.9864 60.95 27.8414 60.95C30.7708 60.95 31.6537 57.6744 32.1256 55.9227C32.7133 53.5914 33.1162 51.2176 33.3316 48.823C33.4205 48.1021 33.5683 47.3897 33.7733 46.6925H60.0085C60.5688 46.6925 61.0232 46.238 61.0232 45.6773C61.0232 45.117 60.5688 44.6626 60.0085 44.6626ZM30.1656 55.3813C29.705 57.0909 29.1079 58.9149 27.84 58.9149C27.2797 58.8487 25.7747 56.2076 24.6933 48.4597C24.3121 45.7628 23.0815 44.2818 21.0393 44.0546C21.0001 44.0555 20.9614 44.0593 20.9226 44.0655C20.8825 44.0593 20.8423 44.0555 20.8017 44.0546C18.7586 44.2818 17.5294 45.7637 17.1477 48.4616C16.0687 56.2038 14.5632 58.8478 14.0062 58.9168C12.7374 58.9168 12.1393 57.09 11.6773 55.3761C11.1156 53.1488 10.7325 50.8803 10.5327 48.5915C10.2304 46.2905 9.49152 44.0683 8.3554 42.0445C7.98976 41.3586 7.59011 40.6977 7.19093 40.0378C6.4984 38.9617 5.89845 37.8279 5.39818 36.6497C3.79438 32.5602 3.29931 27.0227 6.71806 23.7461C10.1368 20.4696 16.5794 20.5234 20.2396 23.8661C20.2495 23.8751 20.2627 23.877 20.274 23.8864C20.2854 23.8954 20.2892 23.9096 20.3014 23.9176C20.343 23.9512 24.5006 27.2145 25.5352 30.7381C25.6622 31.1708 26.06 31.468 26.5116 31.4666C26.608 31.467 26.7043 31.4529 26.7969 31.425C27.0553 31.3494 27.2731 31.1742 27.4026 30.938C27.5315 30.7018 27.5618 30.424 27.4862 30.1656C26.599 27.1436 23.972 24.4529 22.5255 23.1471C26.2688 20.5419 31.9815 20.7233 35.1324 23.7471C38.5521 27.0227 38.0566 32.5602 36.4518 36.6488C35.9506 37.8265 35.3493 38.9588 34.6544 40.034C34.2552 40.6935 33.8546 41.3534 33.4889 42.0427C32.3519 44.0655 31.6131 46.2876 31.3117 48.5887C31.1071 50.8794 30.724 53.1507 30.1656 55.3813Z" fill="url(#paint0_linear)"/>
<path d="M9.61476 24.1472C6.98964 25.6683 5.65322 28.7153 6.31174 31.6768C6.41142 32.1473 6.8276 32.4836 7.30851 32.4818C7.37937 32.4818 7.45023 32.4747 7.51967 32.4605C7.78327 32.4048 8.01427 32.247 8.16119 32.0212C8.3081 31.7954 8.35912 31.5204 8.30338 31.2568C7.83145 29.1721 8.75452 27.0208 10.5903 25.9267C11.0636 25.6485 11.2304 25.0448 10.9663 24.5634C10.7027 24.082 10.1037 23.8978 9.61476 24.1472Z" fill="url(#paint1_linear)"/>
<path d="M58.9932 6.09018L49.9005 6.09018L27.4313 4.13633C26.9801 1.74032 24.8893 0.0037792 22.4512 0L20.4209 0C17.6195 0.0033068 15.3492 2.27366 15.3459 5.07546V12.1808C15.3459 13.3018 16.2548 14.2107 17.3758 14.2107H20.4209V17.2558C19.8606 17.2558 19.4062 17.7103 19.4062 18.271C19.4062 18.8317 19.8606 19.2862 20.4209 19.2862H22.4512C23.012 19.2862 23.4664 18.8317 23.4664 18.271C23.4664 17.7103 23.012 17.2558 22.4512 17.2558V14.2107H25.4963C26.6178 14.2107 27.5267 13.3018 27.5267 12.1808V11.4642L49.6019 17.2237C49.6856 17.2449 49.7715 17.2558 49.8575 17.2558H58.9932C60.1142 17.2558 61.0231 16.3469 61.0231 15.2259V8.12055C61.0231 6.99907 60.1142 6.09018 58.9932 6.09018ZM17.3758 12.1808V5.07546C17.3758 3.39325 18.7391 2.0299 20.4209 2.0299L22.4512 2.0299C24.133 2.0299 25.4963 3.39325 25.4963 5.07546V12.1808H17.3758ZM27.5267 6.18277L48.8428 8.03599V14.9274L27.5267 9.36674V6.18277ZM58.9932 15.2259H50.8727V8.12055H58.9932V15.2259Z" fill="url(#paint2_linear)"/>
</g>
<defs>
<linearGradient id="paint0_linear" x1="30.5716" y1="19.2812" x2="30.5716" y2="60.95" gradientUnits="userSpaceOnUse">
<stop stop-color="#18BBEB"/>
<stop offset="1" stop-color="#0170B0"/>
</linearGradient>
<linearGradient id="paint1_linear" x1="8.61846" y1="24.0361" x2="8.61846" y2="32.4818" gradientUnits="userSpaceOnUse">
<stop stop-color="#18BBEB"/>
<stop offset="1" stop-color="#0170B0"/>
</linearGradient>
<linearGradient id="paint2_linear" x1="38.1845" y1="0" x2="38.1845" y2="19.2862" gradientUnits="userSpaceOnUse">
<stop stop-color="#18BBEB"/>
<stop offset="1" stop-color="#0170B0"/>
</linearGradient>
<clipPath id="clip0">
<rect width="60.95" height="60.95" fill="white"/>
</clipPath>
</defs>
</svg>
