<svg width="62" height="62" viewBox="0 0 62 62" fill="none" xmlns="http://www.w3.org/2000/svg">
<g clip-path="url(#clip0)">
<path d="M6.6127 31.1707C8.6273 32.9094 12.683 35.1664 20.5698 36.2207L22.0797 43.5613L20.4876 44.0821C19.421 44.394 18.6091 45.2621 18.369 46.3471C18.1285 47.4317 18.498 48.5616 19.3326 49.2946C20.1677 50.028 21.3354 50.2487 22.3803 49.8702L23.3259 49.5654L23.7654 51.691L22.3439 52.1537C20.7971 52.7142 19.9744 54.4013 20.4857 55.965C20.997 57.5288 22.6577 58.404 24.2366 57.9418L25.1444 57.6455C26.2082 60.0216 28.6835 61.4399 31.2718 61.1563C33.8597 60.8732 35.9693 58.9527 36.4938 56.4026L37.0453 53.7543L39.6062 52.9174C41.0741 52.4448 41.9554 50.9486 41.6577 49.4359C41.3595 47.9232 39.9767 46.8731 38.4394 46.9922L38.9664 44.4478L41.7154 43.549C43.1964 43.0504 44.0598 41.5117 43.7139 39.9876C43.368 38.464 41.9252 37.4489 40.3737 37.638L40.6653 36.2165C48.5522 35.1626 52.6078 32.9051 54.6224 31.167C55.9003 30.0531 56.7854 28.5578 57.1479 26.9019C58.8997 19.2325 58.2008 9.10038 53.4741 4.57449C47.6131 -1.05203 37.1531 -1.18435 30.6197 4.12649C24.0844 -1.18435 13.6262 -1.05203 7.76106 4.58158C3.03433 9.10746 2.33539 19.2395 4.08724 26.909C4.45018 28.5635 5.33579 30.0578 6.6127 31.1707ZM22.6931 36.4613C25.1231 36.6966 27.7705 36.8237 30.6197 36.8237C33.4689 36.8237 36.1172 36.6966 38.5472 36.4613L38.1705 38.3024L24.0192 42.9266L22.6931 36.4613ZM34.51 55.9934C34.1243 57.836 32.502 59.1578 30.6197 59.1634C29.1353 59.1639 27.7762 58.3312 27.1023 57.0085L34.8195 54.4854L34.51 55.9934ZM39.1228 49.1197C39.489 49.3055 39.7069 49.6939 39.6752 50.1032C39.644 50.5124 39.369 50.8626 38.9787 50.9902L25.5423 55.3838L23.6132 56.0156C23.2654 56.1404 22.877 56.0662 22.5996 55.8223C22.3222 55.578 22.1993 55.2023 22.2787 54.8417C22.3581 54.4807 22.6274 54.1914 22.9814 54.0861L38.3482 49.0597C38.4503 49.0266 38.5571 49.0092 38.6649 49.0092C38.8241 49.0096 38.981 49.0474 39.1228 49.1197ZM36.242 47.6117L25.7077 51.054L25.2682 48.9298L36.7429 45.178L36.242 47.6117ZM40.774 39.6408C41.127 39.6403 41.455 39.8236 41.6397 40.1247C41.8245 40.4257 41.8396 40.8009 41.6799 41.1161C41.5594 41.3576 41.3467 41.5405 41.0897 41.6237L21.7499 47.943C21.2239 48.0957 20.6714 47.8041 20.5013 47.2833C20.3312 46.7625 20.6043 46.2006 21.119 46.0135L40.4574 39.6923C40.5594 39.6587 40.6662 39.6412 40.774 39.6408ZM9.16651 6.04657C11.9349 3.55939 15.5501 2.22483 19.2712 2.31698C23.1837 2.26122 26.9799 3.64918 29.933 6.21623C30.3721 6.63966 36.4452 12.4533 41.7896 12.4533C42.35 12.4533 42.8046 11.9987 42.8046 11.4377C42.8046 10.8768 42.35 10.4222 41.7896 10.4222C38.2221 10.4222 33.9443 7.04891 32.1712 5.50453C37.8931 1.10151 47.0777 1.2551 52.0738 6.04657C56.2098 10.0073 56.7571 19.5174 55.172 26.4572C54.9046 27.6892 54.2481 28.8026 53.2997 29.6334C51.4372 31.2397 47.5654 33.355 39.6989 34.3044C36.6848 34.6461 33.6532 34.8091 30.6197 34.793C27.5867 34.8082 24.5551 34.6447 21.5415 34.3025C13.674 33.355 9.80307 31.2388 7.9397 29.6334C6.99123 28.8026 6.33482 27.6892 6.06734 26.4572C4.48231 19.5188 5.0305 10.0082 9.16651 6.04657Z" fill="url(#paint0_linear)"/>
<path d="M9.04365 21.5079C9.36028 21.5084 9.65895 21.361 9.85129 21.1096C10.0436 20.8577 10.1079 20.5311 10.0243 20.2254C7.75682 11.9132 13.0525 9.17222 13.2964 9.05172C13.7846 8.79841 13.9826 8.20296 13.7434 7.70817C13.5038 7.21291 12.9141 6.99836 12.4127 7.22378C12.3418 7.25733 5.33533 10.7516 8.06447 20.7594C8.18498 21.2012 8.58572 21.5075 9.04365 21.5079Z" fill="url(#paint1_linear)"/>
<path d="M17.4187 6.36044C17.4187 6.92139 16.964 7.37601 16.4036 7.37601C15.8426 7.37601 15.388 6.92139 15.388 6.36044C15.388 5.79996 15.8426 5.34534 16.4036 5.34534C16.964 5.34534 17.4187 5.79996 17.4187 6.36044Z" fill="url(#paint2_linear)"/>
</g>
<defs>
<linearGradient id="paint0_linear" x1="30.6176" y1="0.246094" x2="30.6176" y2="61.1922" gradientUnits="userSpaceOnUse">
<stop stop-color="#18BBEB"/>
<stop offset="1" stop-color="#0170B0"/>
</linearGradient>
<linearGradient id="paint1_linear" x1="10.6393" y1="7.13428" x2="10.6393" y2="21.5079" gradientUnits="userSpaceOnUse">
<stop stop-color="#18BBEB"/>
<stop offset="1" stop-color="#0170B0"/>
</linearGradient>
<linearGradient id="paint2_linear" x1="16.4033" y1="5.34534" x2="16.4033" y2="7.37601" gradientUnits="userSpaceOnUse">
<stop stop-color="#18BBEB"/>
<stop offset="1" stop-color="#0170B0"/>
</linearGradient>
<clipPath id="clip0">
<rect width="60.9461" height="60.9461" fill="white" transform="translate(0.0922852 0.246216)"/>
</clipPath>
</defs>
</svg>
