<svg width="62" height="62" viewBox="0 0 62 62" fill="none" xmlns="http://www.w3.org/2000/svg">
<g clip-path="url(#clip0)">
<path d="M55.9612 15.747C39.3493 13.9819 22.5969 13.9819 5.98493 15.747C2.87187 16.0646 0.503255 18.6848 0.5 21.8141L0.5 41.2936C0.50837 43.7608 2.5143 45.7547 4.9815 45.7477H12.2706C13.2526 45.7444 14.2054 45.4171 14.9819 44.8163C15.5956 46.5786 17.2561 47.7601 19.1221 47.7629H27.5875C28.9006 47.7592 30.1431 47.1668 30.9731 46.149C31.8031 47.1668 33.0455 47.7592 34.3586 47.7629H42.8241C44.6896 47.7606 46.35 46.5791 46.9643 44.8172C47.7408 45.418 48.694 45.7454 49.6756 45.7486H56.9646C59.4323 45.7556 61.4382 43.7613 61.4461 41.2936V21.8141C61.4429 18.6848 59.0743 16.0646 55.9612 15.747ZM45.1936 32.5082V35.2182C44.2302 35.2712 43.2147 35.3191 42.1466 35.3614V33.5424C42.1466 32.4204 41.2371 31.5109 40.1151 31.5109H37.0676C35.9456 31.5109 35.0361 32.4204 35.0361 33.5424V35.5474C34.054 35.5595 33.0362 35.5678 31.9891 35.5706V32.7979C32.0123 28.7047 35.3444 25.4024 39.4376 25.4163C43.9819 25.4163 45.1936 29.0995 45.1936 31.276V32.5082ZM53.9111 25.8832H54.1143C55.5134 25.7809 56.8903 26.2775 57.9011 27.2498C58.9125 28.2225 59.4625 29.5784 59.4146 30.9803V33.733C58.9557 33.8218 58.2843 33.9362 57.3831 34.0757V32.5264C57.3831 31.4044 56.4736 30.4949 55.3516 30.4949H52.3041C51.1821 30.4949 50.2726 31.4044 50.2726 32.5264V34.8741C49.3306 34.9526 48.3151 35.0275 47.2256 35.0987V32.5082C47.2465 28.8344 50.2373 25.8711 53.9111 25.8832ZM55.3516 38.6209H52.3041V36.7419C53.4438 36.6322 54.4598 36.522 55.3516 36.4118V38.6209ZM52.3041 34.6899V32.5264H55.3516V34.3547C54.4668 34.4635 53.455 34.5783 52.3041 34.6899ZM40.1151 39.6369H37.0676V37.5463C38.1222 37.5263 39.141 37.5008 40.1151 37.4701V39.6369ZM37.0676 35.513V33.5424H40.1151V35.4348C39.141 35.466 38.1231 35.4916 37.0676 35.513ZM29.9571 35.5739C28.9099 35.5739 27.8921 35.5627 26.9101 35.5506V33.5424C26.9101 32.4204 26.0006 31.5109 24.8786 31.5109H21.8311C20.7091 31.5109 19.7996 32.4204 19.7996 33.5424V35.3614C18.7324 35.3191 17.7164 35.2712 16.7525 35.2182V31.276C16.7525 29.0995 17.9643 25.4163 22.5085 25.4163C26.6018 25.4024 29.9338 28.7047 29.9571 32.7979V35.5739ZM24.8786 39.6369H21.8311V37.4701C22.8061 37.5008 23.8249 37.5263 24.8786 37.5463V39.6369ZM21.8311 35.4348V33.5424H24.8786V35.513C23.824 35.4916 22.8061 35.466 21.8311 35.4348ZM14.7206 35.0987C13.6297 35.0275 12.6142 34.9526 11.6735 34.8741V32.5264C11.6735 31.4044 10.764 30.4949 9.64202 30.4949H6.59452C5.47252 30.4949 4.56301 31.4044 4.56301 32.5264V34.0757C3.66188 33.9395 2.99044 33.8218 2.53151 33.733V30.9803C2.48361 29.5779 3.03415 28.2206 4.04642 27.2484C5.05822 26.2756 6.43596 25.7795 7.83602 25.8832H8.03922C11.7112 25.8734 14.6996 28.8358 14.7206 32.5082V35.0987ZM9.64202 38.6209H6.59452V36.4118C7.48589 36.5201 8.50141 36.6303 9.64202 36.7419V38.6209ZM6.59452 34.3547V32.5264H9.64202V34.6899C8.49118 34.5783 7.47938 34.4635 6.59452 34.3547ZM12.2706 43.718H4.9815C3.63538 43.725 2.53895 42.6397 2.53151 41.2936L2.53151 35.8082C3.03927 35.904 3.71396 36.0179 4.56301 36.1425V38.6209C4.56301 39.7429 5.47252 40.6529 6.59452 40.6529H9.64202C10.764 40.6529 11.6735 39.7429 11.6735 38.6209V36.9218C12.6193 36.9981 13.6297 37.073 14.7206 37.1423V41.2936C14.7122 42.6388 13.6158 43.7231 12.2706 43.7162V43.718ZM27.5875 45.7314H19.1221C17.8211 45.737 16.7614 44.6889 16.7525 43.3879V37.259C17.7174 37.3096 18.7329 37.3566 19.7996 37.3989V39.6369C19.7996 40.7589 20.7091 41.6684 21.8311 41.6684H24.8786C26.0006 41.6684 26.9101 40.7589 26.9101 39.6369V37.5798C27.8912 37.5924 28.9109 37.5993 29.9571 37.6021V43.3921C29.9459 44.6912 28.8867 45.737 27.5875 45.7314ZM45.1936 43.3879C45.1848 44.6889 44.1251 45.737 42.8241 45.7314H34.3586C33.0576 45.737 31.9979 44.6889 31.9891 43.3879V37.6054C33.0353 37.6054 34.055 37.5951 35.0361 37.5831V39.6369C35.0361 40.7589 35.9456 41.6684 37.0676 41.6684H40.1151C41.2371 41.6684 42.1466 40.7589 42.1466 39.6369V37.4022C43.2147 37.3608 44.2302 37.3143 45.1936 37.2622V43.3911V43.3879ZM56.9646 43.7162H49.6756C48.3304 43.7231 47.234 42.6388 47.2256 41.2936V37.1423C48.3164 37.073 49.3269 36.9981 50.2726 36.9218V38.6209C50.2726 39.7429 51.1821 40.6529 52.3041 40.6529H55.3516C56.4736 40.6529 57.3831 39.7429 57.3831 38.6209V36.1384C58.2322 36.0137 58.9069 35.8998 59.4146 35.8045V41.2894C59.4118 41.9362 59.1519 42.5551 58.6925 43.0103C58.2327 43.4655 57.6114 43.7194 56.9646 43.7162ZM54.1092 23.8517H53.906C50.9222 23.8517 48.1449 25.3763 46.5439 27.8947C45.3722 25.0336 42.5209 23.2249 39.4334 23.3844C35.8596 23.3862 32.5898 25.3949 30.9731 28.5824C29.3559 25.394 26.0838 23.3848 22.5085 23.3844C19.4211 23.2249 16.5698 25.0336 15.3985 27.8947C13.7971 25.3763 11.0202 23.8517 8.03597 23.8517H7.83277C5.86403 23.7735 3.94877 24.5036 2.53151 25.872L2.53151 21.809C2.53941 19.7208 4.12361 17.9761 6.20161 17.7674C8.53071 17.5195 10.8658 17.3154 13.2033 17.1378C13.3535 17.2331 13.5269 17.2856 13.705 17.2898C14.1458 17.2898 14.7206 19.2604 14.7206 21.3528C14.7206 21.9141 15.1758 22.3688 15.7365 22.3688C16.2973 22.3688 16.7525 21.9141 16.7525 21.3528C16.773 19.85 16.5038 18.357 15.9588 16.956C20.6189 16.6565 25.2849 16.4938 29.9571 16.4682V22.3688C29.9571 22.9296 30.4123 23.3844 30.9731 23.3844C31.5338 23.3844 31.9891 22.9296 31.9891 22.3688V16.4682C36.6612 16.4887 41.3273 16.6509 45.9874 16.956C45.4429 18.357 45.1732 19.85 45.1936 21.3528C45.1936 21.9141 45.6488 22.3688 46.2096 22.3688C46.7704 22.3688 47.2256 21.9141 47.2256 21.3528C47.2256 19.2604 47.8003 17.2898 48.2411 17.2898C48.4192 17.2856 48.5922 17.2331 48.7428 17.1387C51.0794 17.3163 53.4154 17.5195 55.7455 17.7674C57.8249 17.9766 59.4095 19.7245 59.4146 21.8141V25.8771C57.9969 24.5059 56.0803 23.774 54.1092 23.8517Z" fill="url(#paint0_linear)"/>
</g>
<defs>
<linearGradient id="paint0_linear" x1="30.9731" y1="14.4232" x2="30.9731" y2="47.7629" gradientUnits="userSpaceOnUse">
<stop stop-color="#18BBEB"/>
<stop offset="1" stop-color="#0170B0"/>
</linearGradient>
<clipPath id="clip0">
<rect width="60.9461" height="60.9461" fill="white" transform="translate(0.5 0.615112)"/>
</clipPath>
</defs>
</svg>
