<svg width="35" height="35" viewBox="0 0 35 35" fill="none" xmlns="http://www.w3.org/2000/svg">
<path d="M34.9802 27.6214C34.8967 27.1053 34.5732 26.6642 34.0887 26.4021L26.9212 22.1779L26.8622 22.1449C26.5616 21.9944 26.2297 21.9173 25.8937 21.9198C25.2932 21.9198 24.7197 22.1474 24.3217 22.5465L22.2062 24.6636C22.1156 24.7496 21.8207 24.8741 21.7311 24.8786C21.7066 24.8766 19.2696 24.7011 14.7831 20.2128C10.3046 15.734 10.1146 13.2888 10.1131 13.2888C10.1156 13.1638 10.2386 12.8697 10.3261 12.7787L12.1301 10.9747C12.7656 10.3375 12.9561 9.28117 12.5791 8.46293L8.59511 0.964277C8.30561 0.368106 7.74311 0 7.1191 0C6.6776 0 6.2516 0.183053 5.9186 0.515648L1.00109 5.42356C0.529585 5.89269 0.123584 6.71293 0.0350833 7.37312C-0.00791683 7.68871 -0.880419 15.2219 9.44461 25.5513C18.2101 34.3184 25.0452 34.9996 26.9327 34.9996C27.1625 35.0025 27.3923 34.9907 27.6207 34.964C28.2787 34.876 29.0977 34.4709 29.5662 34.0013L34.4797 29.0869C34.8807 28.6837 35.0637 28.1511 34.9802 27.6214Z" fill="url(#paint0_linear)"/>
<defs>
<linearGradient id="paint0_linear" x1="6.46028" y1="59.0625" x2="-29.75" y2="20.9507" gradientUnits="userSpaceOnUse">
<stop stop-color="#0170B0"/>
<stop offset="1" stop-color="#18BBEB"/>
</linearGradient>
</defs>
</svg>
